<svg width="71" height="90" fill="none" xmlns="http://www.w3.org/2000/svg"><path d="M7.012 74.366h-1.74v4.497h-.516v-4.497H3.017v-.453h3.995v.453zm3.282 2.574c.505.117.757.422.757.912 0 .325-.12.575-.36.75-.241.174-.6.26-1.076.26h-1.69v-3.718h1.641c.424 0 .756.082.997.247.24.165.36.4.36.707a.83.83 0 01-.17.523.973.973 0 01-.459.319zm-1.88-.142H9.53c.287 0 .506-.054.657-.162a.541.541 0 00.233-.474c0-.208-.077-.363-.233-.467-.15-.103-.37-.155-.657-.155H8.413v1.258zm1.18 1.669c.32 0 .561-.052.721-.156.16-.103.24-.266.24-.488 0-.221-.072-.384-.218-.487-.146-.109-.377-.163-.693-.163h-1.23v1.294h1.18zm4.38.431c-.358 0-.681-.08-.969-.24a1.804 1.804 0 01-.679-.679 1.925 1.925 0 01-.247-.976c0-.363.082-.688.247-.975.165-.288.391-.512.68-.672.287-.16.61-.24.968-.24s.68.08.968.24c.288.16.512.384.672.672.165.287.248.612.248.975s-.083.688-.248.976c-.16.287-.384.514-.672.679-.287.16-.61.24-.968.24zm0-.445c.264 0 .5-.06.707-.177.212-.123.377-.295.495-.516.118-.222.176-.474.176-.757a1.58 1.58 0 00-.176-.756 1.227 1.227 0 00-.495-.51 1.363 1.363 0 00-.707-.183 1.4 1.4 0 00-.714.184 1.286 1.286 0 00-.495.509 1.585 1.585 0 00-.177.756c0 .283.059.535.177.757.122.221.287.393.495.516.212.118.45.177.714.177zm3.173-3.31h.502V78.1l2.481-2.955h.446v3.719h-.502v-2.956l-2.475 2.956h-.452v-3.72zm1.69-.537c-.321 0-.576-.08-.764-.24-.189-.16-.285-.387-.29-.679h.36a.59.59 0 00.198.446.737.737 0 00.495.162.737.737 0 00.495-.162.58.58 0 00.206-.446h.36c-.005.292-.104.519-.297.679-.189.16-.443.24-.764.24zm8.79.538v3.719h-.502v-3.274H24.79v3.274h-.502v-3.72h3.338zm3.555-.029c.349 0 .665.08.947.24.283.156.505.378.665.665.16.288.24.616.24.983 0 .373-.08.703-.24.99-.16.288-.382.512-.665.672a1.907 1.907 0 01-.947.233 1.8 1.8 0 01-.82-.184 1.584 1.584 0 01-.594-.551v2.072h-.502v-5.091h.48v.735a1.56 1.56 0 01.595-.566c.25-.132.53-.198.84-.198zm-.035 3.338c.259 0 .494-.06.707-.177.212-.123.377-.295.495-.516.122-.222.183-.474.183-.757 0-.283-.06-.532-.183-.75a1.274 1.274 0 00-.495-.515 1.388 1.388 0 00-.707-.184 1.4 1.4 0 00-.715.184 1.338 1.338 0 00-.495.516 1.545 1.545 0 00-.176.75c0 .282.059.534.176.756.123.221.288.393.495.516.213.118.45.177.715.177zm4.712.445c-.358 0-.68-.08-.968-.24a1.805 1.805 0 01-.68-.679 1.925 1.925 0 01-.246-.976c0-.363.082-.688.247-.975.165-.288.391-.512.679-.672.287-.16.61-.24.968-.24.359 0 .681.08.969.24.288.16.511.384.672.672.165.287.247.612.247.975s-.082.688-.247.976c-.16.287-.384.514-.672.679-.288.16-.61.24-.969.24zm0-.445c.264 0 .5-.06.707-.177.212-.123.377-.295.495-.516.118-.222.177-.474.177-.757a1.58 1.58 0 00-.177-.756 1.228 1.228 0 00-.495-.51 1.363 1.363 0 00-.707-.183c-.264 0-.502.061-.714.184a1.287 1.287 0 00-.495.509 1.586 1.586 0 00-.176.756c0 .283.059.535.176.757.123.221.288.393.495.516.212.118.45.177.714.177zm5.542-1.513c.504.117.756.422.756.912 0 .325-.12.575-.36.75-.24.174-.599.26-1.075.26h-1.69v-3.718h1.64c.425 0 .757.082.998.247.24.165.36.4.36.707a.83.83 0 01-.17.523.974.974 0 01-.46.319zm-1.88-.142h1.116c.288 0 .507-.054.658-.162a.541.541 0 00.233-.474.525.525 0 00-.233-.467c-.151-.103-.37-.155-.658-.155H39.52v1.258zm1.18 1.669c.32 0 .56-.052.721-.156.16-.103.24-.266.24-.488 0-.221-.073-.384-.219-.487-.146-.109-.377-.163-.693-.163h-1.23v1.294h1.18zm4.38.431c-.359 0-.682-.08-.97-.24a1.805 1.805 0 01-.678-.679 1.926 1.926 0 01-.248-.976c0-.363.083-.688.248-.975.165-.288.391-.512.679-.672.287-.16.61-.24.968-.24.359 0 .681.08.97.24.287.16.51.384.67.672.166.287.248.612.248.975s-.082.688-.247.976c-.16.287-.384.514-.672.679-.288.16-.61.24-.969.24zm0-.445c.263 0 .499-.06.706-.177.213-.123.377-.295.495-.516.118-.222.177-.474.177-.757a1.58 1.58 0 00-.177-.756 1.227 1.227 0 00-.495-.51 1.363 1.363 0 00-.707-.183 1.4 1.4 0 00-.714.184 1.287 1.287 0 00-.495.509 1.586 1.586 0 00-.176.756c0 .283.059.535.176.757.123.221.288.393.495.516.212.118.45.177.714.177zm6.779-.029v1.337h-.474v-.898h-3.33v.898h-.474v-1.337h.212c.25-.014.42-.198.51-.551.089-.354.15-.849.183-1.485l.05-1.244h2.743v3.28h.58zm-2.913-2.008a9.367 9.367 0 01-.135 1.308c-.066.34-.183.573-.353.7h2.319V75.59h-1.789l-.042.827zm4.103-1.272h.502v1.647h2.34v-1.647h.503v3.719h-.502v-1.64h-2.34v1.64h-.503v-3.72zm4.984 0h.502v2.955l2.481-2.955h.446v3.719h-.502v-2.956l-2.475 2.956h-.452v-3.72zm6.43 2.064h-.848v1.655h-.502v-3.72h.502v1.634h.855l1.308-1.633h.545l-1.464 1.803 1.57 1.916h-.594l-1.372-1.655zM12.272 85.94c.504.117.756.422.756.912 0 .325-.12.575-.36.75-.241.174-.6.26-1.075.26h-1.69v-3.718h1.64c.425 0 .757.082.997.247.24.165.36.4.36.707a.83.83 0 01-.169.523.973.973 0 01-.46.319zm-1.881-.142h1.117c.287 0 .507-.054.657-.162a.541.541 0 00.234-.474.523.523 0 00-.234-.467c-.15-.103-.37-.155-.657-.155H10.39v1.258zm1.18 1.669c.321 0 .561-.052.722-.156.16-.103.24-.266.24-.488 0-.221-.073-.384-.22-.487-.145-.109-.376-.163-.692-.163h-1.23v1.294h1.18zm9.066-3.323v3.719h-.46V84.92l-1.506 2.49h-.226l-1.506-2.497v2.949h-.46v-3.72h.51l1.576 2.68 1.605-2.68h.467zm1.64 0h.502v2.955l2.482-2.955h.446v3.719h-.502v-2.956l-2.475 2.956h-.453v-3.72zm6.997-.029c.348 0 .664.08.947.24.283.156.504.378.665.665.16.288.24.616.24.983 0 .373-.08.703-.24.99-.16.288-.382.512-.665.672a1.907 1.907 0 01-.947.233 1.8 1.8 0 01-.82-.184 1.584 1.584 0 01-.595-.551v2.072h-.502v-5.091h.481v.735c.151-.245.35-.434.594-.566.25-.132.53-.198.842-.198zm-.036 3.338c.26 0 .495-.06.707-.177.212-.123.377-.295.495-.516.123-.222.184-.474.184-.757 0-.283-.061-.532-.184-.75a1.274 1.274 0 00-.495-.515 1.387 1.387 0 00-.707-.184c-.264 0-.502.061-.714.184a1.338 1.338 0 00-.495.516 1.545 1.545 0 00-.177.75c0 .282.06.534.177.756.123.221.288.393.495.516.212.118.45.177.714.177zm5.362-4.54h.516v4.101l3.167-4.1h.474v4.949h-.516v-4.094l-3.168 4.094H34.6v-4.95zm8.535 1.676h-1.407v3.274h-.502v-3.274H39.82v-.445h3.316v.445zm2.218-.474c.486 0 .858.123 1.117.368.26.24.39.599.39 1.075v2.305h-.482v-.58a1.15 1.15 0 01-.502.453 1.722 1.722 0 01-.777.162c-.415 0-.745-.099-.99-.297a.96.96 0 01-.368-.785c0-.316.113-.57.34-.763.23-.194.596-.29 1.095-.29h1.181v-.226c0-.321-.09-.564-.269-.729-.179-.17-.44-.254-.784-.254-.236 0-.462.04-.68.12a1.662 1.662 0 00-.558.318l-.226-.375a1.96 1.96 0 01.679-.367 2.58 2.58 0 01.834-.135zm-.177 3.387c.283 0 .526-.063.729-.19a1.19 1.19 0 00.452-.566v-.608h-1.166c-.637 0-.955.221-.955.664 0 .217.082.39.247.516.165.123.396.184.693.184zm6.272-3.358v3.719h-.502v-3.274h-1.782l-.05.92c-.037.772-.127 1.366-.268 1.781-.141.415-.394.622-.756.622a1.44 1.44 0 01-.361-.056l.035-.432a.971.971 0 00.177.029c.193 0 .34-.09.438-.269.1-.18.165-.4.198-.665.033-.264.062-.612.085-1.046l.064-1.33h2.722zm1.64 0h.501v2.955l2.482-2.955h.445v3.719h-.502v-2.956l-2.474 2.956h-.453v-3.72zm5.08 0h.501v2.955l2.482-2.955h.445v3.719h-.502v-2.956l-2.474 2.956h-.453v-3.72z" fill="#E8E8E8"/><path d="M16.19 3.043c-3.011 1.23-6.165 6.442 1.754 12.412 7.919 5.971-2.357 9.27-4.896 7.15-4.894-4.089-4.846 7.508 4.189 8.798 1.082.155 1.935.421 2.592.774m0 0c-2.352-.203-4.998.715-7.532 2.369-7.111 4.642-13.343 15.079-9.751 22.783 2.278 3.064 8.421 3.064 15.712-3.535m1.571-21.617c2.427.423 4.703 3.877-5.604 14.31m4.033 7.307c2.069-7.206 7.778-21.617 14.063-21.617 6.285 0-6.757 14.411-14.063 21.617zm0 0c-.419 2.095.22 5.452 6.128 2.12m0 0c2.75-2.12 2.043-4.163 1.021-3.849-1.021.315-2.042 1.257-1.021 3.85zm0 0c.864.55 3.237 1.195 5.814-.628m0 0c1.44-.523 4.242-1.304 4.87-4.006.629-2.703-4.87 1.02-4.87 4.006zm0 0c-.21.995-.08 2.954 2.12 2.828 2.75-.157 8.878-6.834 11.156-6.834 1.823 0-1.283 4.556-3.063 6.834 1.964-2.225 6.068-6.049 7.777-6.049 1.65 0-1.257 4.321-1.964 6.05 3.038-2.672 10.135-8.83 10.135-8.014 0 .393-5.657 8.014-2.514 8.014 1.073-.236 3.645-1.132 5.342-2.829m0 0c2.121-2.12 4.95-4.006 6.442-3.614.324.086.281.4 0 .84m-6.442 2.774c-1.074.943-.864 2.043 0 2.043 1.292 0 5.426-3.227 6.442-4.817m0 0c-1.048 1.606-2.703 4.817-.943 4.817 1.76 0 3.832-1.262 5.814-2.043" stroke="#FFD500" stroke-width="1.571"/><path d="M33.473 2.84h37.003v.674L33.473 2.84zm0 0c-4.167 2-10.151 4.801-18.37 0m18.37 0c-6.442 1.593-13.059 1.669-17.788-1.032M33.472 2.84c-8.045 3.294-15.398 1.036-18.07-.504m18.07.504c-3.221.748-11.344 1.114-17.44-1.84" stroke="#868686" stroke-width=".786"/></svg>