<svg width="85" height="86" fill="none" xmlns="http://www.w3.org/2000/svg"><g filter="url(#filter0_d_1_25)"><path d="M63.248 29.81a22.528 22.528 0 00-4.836-7.212 22.302 22.302 0 00-7.197-4.846A22.341 22.341 0 0042.498 16h-.101c-3.045.015-5.99.62-8.762 1.807a22.35 22.35 0 00-7.132 4.857 22.396 22.396 0 00-4.781 7.187A22.643 22.643 0 0020 38.653a22.68 22.68 0 002.411 10.061v7.65a2.314 2.314 0 002.31 2.315h7.64a22.533 22.533 0 0010.041 2.416h.106c3.01 0 5.923-.584 8.671-1.726a22.307 22.307 0 007.172-4.791 22.388 22.388 0 004.847-7.147A22.582 22.582 0 0065 38.648c.01-3.065-.584-6.04-1.752-8.838zM32.452 40.963a2.415 2.415 0 010-4.831 2.415 2.415 0 012.41 2.416 2.412 2.412 0 01-2.41 2.415zm10.046 0a2.415 2.415 0 010-4.831 2.415 2.415 0 010 4.831zm10.045 0a2.415 2.415 0 010-4.831 2.415 2.415 0 010 4.831z" fill="#856F00"/></g><defs><filter id="filter0_d_1_25" x="0" y="0" width="85" height="85.095" filterUnits="userSpaceOnUse" color-interpolation-filters="sRGB"><feFlood flood-opacity="0" result="BackgroundImageFix"/><feColorMatrix in="SourceAlpha" values="0 0 0 0 0 0 0 0 0 0 0 0 0 0 0 0 0 0 127 0" result="hardAlpha"/><feOffset dy="4"/><feGaussianBlur stdDeviation="10"/><feComposite in2="hardAlpha" operator="out"/><feColorMatrix values="0 0 0 0 0 0 0 0 0 0 0 0 0 0 0 0 0 0 0.15 0"/><feBlend in2="BackgroundImageFix" result="effect1_dropShadow_1_25"/><feBlend in="SourceGraphic" in2="effect1_dropShadow_1_25" result="shape"/></filter></defs></svg>