<svg width="73" height="62" fill="none" xmlns="http://www.w3.org/2000/svg"><path d="M16.79 3.084c-3.073 1.256-6.291 6.573 1.788 12.664 8.08 6.092-2.405 9.458-4.995 7.294-4.993-4.17-4.944 7.66 4.274 8.977 1.104.158 1.974.43 2.645.79m0 0c-2.4-.207-5.1.73-7.685 2.417C5.562 39.96-.796 50.61 2.867 58.47c2.325 3.126 8.593 3.126 16.032-3.607m1.603-22.054c2.476.431 4.798 3.956-5.718 14.6m4.115 7.454c2.11-7.351 7.935-22.054 14.347-22.054S26.353 47.512 18.9 54.863zm0 0c-.428 2.138.224 5.563 6.252 2.165m0 0c2.805-2.165 2.084-4.249 1.042-3.928-1.042.32-2.084 1.282-1.042 3.928zm0 0c.881.56 3.302 1.218 5.931-.642m0 0c1.47-.534 4.328-1.33 4.97-4.088.64-2.757-4.97 1.042-4.97 4.088zm0 0c-.214 1.015-.08 3.014 2.164 2.886 2.806-.16 9.058-6.974 11.382-6.974 1.86 0-1.31 4.65-3.126 6.974C43.506 57 47.693 53.1 49.437 53.1c1.684 0-1.282 4.408-2.003 6.172 3.099-2.725 10.34-9.01 10.34-8.176 0 .4-5.772 8.176-2.566 8.176 1.096-.24 3.72-1.154 5.45-2.886m0 0c2.165-2.164 5.05-4.088 6.573-3.687.33.087.288.408 0 .857m-6.572 2.83c-1.096.962-.882 2.084 0 2.084 1.318 0 5.536-3.293 6.572-4.914m0 0c-1.068 1.638-2.757 4.914-.961 4.914 1.795 0 3.91-1.288 5.931-2.084" stroke="#FFD500" stroke-width="1.663"/><path d="M34.422 2.877h37.752v.688l-37.752-.688zm0 0c-4.252 2.041-10.358 4.899-18.743 0m18.743 0c-6.573 1.625-13.324 1.703-18.15-1.052m18.15 1.052c-8.208 3.361-15.71 1.058-18.436-.514m18.436.514C31.135 3.641 22.847 4.014 16.628 1" stroke="#868686" stroke-width=".831"/></svg>